<?xml version="1.0" encoding="UTF-8" standalone="no"?>
<!DOCTYPE svg PUBLIC "-//W3C//DTD SVG 1.1//EN" "http://www.w3.org/Graphics/SVG/1.1/DTD/svg11.dtd">
<svg width="100%" height="100%" viewBox="0 0 1000 1000" version="1.1" xmlns="http://www.w3.org/2000/svg" xmlns:xlink="http://www.w3.org/1999/xlink" xml:space="preserve" xmlns:serif="http://www.serif.com/" style="fill-rule:evenodd;clip-rule:evenodd;stroke-linecap:round;stroke-linejoin:round;stroke-miterlimit:1.5;">
    <g transform="matrix(2.457,0,0,2.457,-1572.48,-336.609)">
        <circle cx="843.5" cy="340.5" r="203.5" style="fill:rgb(83,3,138);"/>
    </g>
    <g transform="matrix(1.27368,0,0,1.27368,-109.508,-143.083)">
        <g transform="matrix(1.88315,0,0,1.88315,-1132.34,-266.993)">
            <path d="M743.45,394.272C744.147,393.203 746.227,391.228 747.654,391.941C748.976,392.603 750.096,394.276 751.045,395.383C751.614,396.047 752.195,396.705 752.765,397.356C752.937,397.553 753.088,397.78 753.271,397.964C753.327,398.02 753.565,398.176 753.524,398.217C753.447,398.294 752.07,397.368 751.905,397.306C750.964,396.953 747.341,394.872 746.338,394.371C745.193,393.798 744.4,394.558 743.67,395.434C743.46,395.686 743.25,396.056 743.063,396.244C743.006,396.301 742.829,396.667 742.81,396.649C742.359,396.198 742.736,395.367 743.45,394.272Z" style="fill:rgb(255,249,249);stroke:white;stroke-width:0.42px;"/>
        </g>
        <g transform="matrix(2.02561,0,0,1.88315,-1233.64,-267.128)">
            <path d="M746.372,405.794C744.982,402.448 740.356,402.503 738.779,407.235C735.561,416.889 734.161,446.947 741.765,454.552C742.421,455.207 744.102,454.181 744.224,454.06C747.531,450.752 750.821,429.109 755.003,433.291C769.646,447.934 791.883,467.182 823.831,466.722C838.442,466.512 863.957,460.765 888.728,440.092C915.328,417.893 928.824,398.293 934.58,365.389C937.286,349.922 933.245,324.287 920.715,305.554C915.117,297.185 904.75,289.445 898.542,290.768C884.725,293.713 837.592,347.811 784.009,385.603C773.488,393.023 757.153,405.794 746.372,405.794Z" style="stroke:black;stroke-width:0.4px;"/>
        </g>
        <g transform="matrix(1.81926,0,0,1.81926,-1097.88,-231.097)">
            <circle cx="869.475" cy="392.475" r="29.475" style="fill:white;stroke:white;stroke-width:0.43px;"/>
        </g>
        <g transform="matrix(1.88315,0,0,1.88315,-1109.68,-254.887)">
            <path d="M776.329,372.293C787.465,355.801 813.149,319.903 818.835,312.119C836.458,287.993 843.814,273.624 873.448,244.844C881.435,237.087 897.07,225.37 918.558,232.591C933.9,237.746 935.633,259.132 931.014,265.448C929.489,267.533 929.204,247.645 909.826,249.998C904.231,250.677 896.751,252.923 888.251,258.349C859.799,276.513 847.156,293.512 819.835,325.852C810.587,336.798 803.961,344.06 793.228,354.794C789.57,358.451 775.494,372.293 776.329,372.293Z" style="fill:white;stroke:white;stroke-width:0.42px;"/>
        </g>
        <g transform="matrix(1.93319,0,0,1.88315,-1153.09,-252.063)">
            <path d="M766.123,496.267C774.687,508.279 778.01,511.883 787.76,519.561C814.393,540.536 839.953,547.943 852.862,548.35C870.397,548.903 910.099,547.698 924.195,475.408C926.941,461.32 927.023,440.257 927.023,440.257C927.023,440.257 917.809,450.331 895.853,470.354C867.472,496.238 856.149,510.304 766.123,496.267Z" style="fill:white;stroke:white;stroke-width:0.41px;"/>
        </g>
    </g>
</svg>
